<svg xmlns="http://www.w3.org/2000/svg" version="1.1" xmlns:xlink="http://www.w3.org/1999/xlink" xmlns:svgjs="http://svgjs.dev/svgjs" width="1000" height="1000" viewBox="0 0 1000 1000"><rect width="1000" height="1000" fill="#000000"></rect><g transform="matrix(0.7,0,0,0.7,150.2055070369666,234.2153846153846)"><svg viewBox="0 0 325 247" data-background-color="#282634" preserveAspectRatio="xMidYMid meet" height="760" width="1000" xmlns="http://www.w3.org/2000/svg" xmlns:xlink="http://www.w3.org/1999/xlink"><g id="tight-bounds" transform="matrix(1,0,0,1,-0.09541374360372856,-0.09999999999999432)"><svg viewBox="0 0 325.1908177734937 247.2" height="247.2" width="325.1908177734937"><g><svg viewBox="0 0 395.52 300.6620687183789" height="247.2" width="325.1908177734937"><g transform="matrix(1,0,0,1,0,181.5113475547031)"><svg viewBox="0 0 395.52 119.15072116367583" height="119.15072116367583" width="395.52"><g><svg viewBox="0 0 395.52 119.15072116367583" height="119.15072116367583" width="395.52"><g><svg viewBox="0 0 395.52 71.35435582822086" height="71.35435582822086" width="395.52"><g transform="matrix(1,0,0,1,0,0)"><svg width="395.52" viewBox="5.800000190734863 -37.79999923706055 260.7799987792969 47.04999923706055" height="71.35435582822086" data-palette-color="#ff4057"><path d="M7.5 0L5.8 0 5.8-36 5.85-36 22.9-11.75 22.15-11.85 39.2-36 39.25-36 39.25 0 37.5 0 37.5-31.95 37.65-31.15 22.55-9.8 22.45-9.8 7.25-31.15 7.5-31.85 7.5 0ZM57.75 0.35L57.75 0.35Q54.85 0.35 52.55-0.98 50.25-2.3 48.92-4.58 47.6-6.85 47.6-9.7L47.6-9.7Q47.6-12.45 48.97-14.75 50.35-17.05 52.65-18.43 54.95-19.8 57.8-19.8L57.8-19.8Q61.1-19.8 63.37-17.85 65.65-15.9 66.75-12.85L66.75-12.85 49.6-6.1 49.1-7.4 65.2-13.8 64.85-13.2Q63.9-15.3 62.07-16.8 60.25-18.3 57.7-18.3L57.7-18.3Q55.35-18.3 53.45-17.15 51.55-16 50.42-14.08 49.3-12.15 49.3-9.75L49.3-9.75Q49.3-7.5 50.35-5.53 51.4-3.55 53.32-2.33 55.25-1.1 57.8-1.1L57.8-1.1Q59.45-1.1 60.97-1.73 62.5-2.35 63.7-3.4L63.7-3.4 64.6-2.15Q63.25-1.05 61.47-0.35 59.7 0.35 57.75 0.35ZM73.39 0L73.39-37.8 75.09-37.8 75.09 0 73.39 0ZM82.29-9.7L82.29-9.7Q82.29-12.5 83.64-14.8 84.99-17.1 87.32-18.45 89.64-19.8 92.49-19.8L92.49-19.8Q95.34-19.8 97.64-18.45 99.94-17.1 101.29-14.78 102.64-12.45 102.64-9.7L102.64-9.7Q102.64-6.9 101.29-4.63 99.94-2.35 97.64-1 95.34 0.35 92.44 0.35L92.44 0.35Q89.59 0.35 87.29-0.95 84.99-2.25 83.64-4.5 82.29-6.75 82.29-9.7ZM83.99-9.7L83.99-9.7Q83.99-7.25 85.12-5.33 86.24-3.4 88.17-2.25 90.09-1.1 92.44-1.1L92.44-1.1Q94.79-1.1 96.69-2.25 98.59-3.4 99.74-5.33 100.89-7.25 100.89-9.7L100.89-9.7Q100.89-12.05 99.74-14 98.59-15.95 96.69-17.13 94.79-18.3 92.44-18.3L92.44-18.3Q90.04-18.3 88.12-17.05 86.19-15.8 85.09-13.85 83.99-11.9 83.99-9.7ZM117.69 0.35L117.69 0.35Q114.94 0.35 112.71-0.95 110.49-2.25 109.16-4.55 107.84-6.85 107.84-9.7L107.84-9.7Q107.84-12.75 109.19-15 110.54-17.25 112.81-18.5 115.09-19.75 117.84-19.75L117.84-19.75Q120.74-19.75 123.27-18.13 125.79-16.5 126.94-14L126.94-14 126.59-13.15 126.59-37.8 128.29-37.8 128.29 0 126.59 0 126.59-6.25 126.94-5.3Q125.74-2.8 123.24-1.23 120.74 0.35 117.69 0.35ZM118.04-1.1L118.04-1.1Q120.39-1.1 122.29-2.18 124.19-3.25 125.34-5.05 126.49-6.85 126.59-9.1L126.59-9.1 126.59-11.2Q126.24-13.2 124.99-14.83 123.74-16.45 121.97-17.38 120.19-18.3 118.04-18.3L118.04-18.3Q115.69-18.3 113.77-17.23 111.84-16.15 110.69-14.23 109.54-12.3 109.54-9.75L109.54-9.75Q109.54-7.35 110.69-5.4 111.84-3.45 113.79-2.27 115.74-1.1 118.04-1.1ZM141.09 9.25L139.24 9.25 151.79-19.25 153.49-19.25 141.09 9.25ZM144.79-0.7L143.49 0.2 134.44-19.25 136.29-19.25 144.79-0.7ZM159.59-19.25L161.03-19.25 161.23-13.55 160.94-14.05Q161.88-16.65 164.21-18.18 166.53-19.7 169.34-19.7L169.34-19.7Q170.94-19.7 172.26-19.05 173.59-18.4 174.41-17.3 175.24-16.2 175.34-14.8L175.34-14.8 175.09-14.5Q176.09-17.05 178.34-18.38 180.59-19.7 183.24-19.7L183.24-19.7Q185.99-19.7 187.59-18.13 189.19-16.55 189.28-14.2L189.28-14.2 189.28 0 187.59 0 187.59-13.8Q187.53-15.55 186.38-16.82 185.24-18.1 182.99-18.2L182.99-18.2Q180.99-18.2 179.26-17.23 177.53-16.25 176.46-14.63 175.38-13 175.28-10.95L175.28-10.95 175.28 0 173.59 0 173.59-13.8Q173.53-15.55 172.38-16.82 171.23-18.1 168.98-18.2L168.98-18.2Q166.94-18.2 165.19-17.23 163.44-16.25 162.36-14.55 161.28-12.85 161.28-10.7L161.28-10.7 161.28 0 159.59 0 159.59-19.25ZM204.43 0.5L204.43 0.5Q201.68 0.5 200.08-1.1 198.48-2.7 198.38-5.3L198.38-5.3 198.38-19.25 200.08-19.25 200.08-5.7Q200.18-3.75 201.38-2.43 202.58-1.1 204.93-1L204.93-1Q206.88-1 208.61-2 210.33-3 211.41-4.7 212.48-6.4 212.48-8.6L212.48-8.6 212.48-19.25 214.18-19.25 214.18 0 212.68 0 212.48-6 212.78-5.05Q212.28-3.5 211.03-2.25 209.78-1 208.03-0.25 206.28 0.5 204.43 0.5ZM227.53 0.4L227.53 0.4Q225.98 0.4 224.21-0.18 222.43-0.75 221.33-2.15L221.33-2.15 222.18-3.2Q223.08-2.2 224.46-1.6 225.83-1 227.48-1L227.48-1Q228.63-1 229.71-1.35 230.78-1.7 231.48-2.6 232.18-3.5 232.18-5L232.18-5Q232.18-6.45 231.38-7.25 230.58-8.05 229.41-8.53 228.23-9 226.88-9.4L226.88-9.4Q224.88-10.1 223.48-11.2 222.08-12.3 222.08-14.5L222.08-14.5Q222.08-16.1 222.83-17.23 223.58-18.35 224.88-18.98 226.18-19.6 227.68-19.6L227.68-19.6Q229.03-19.6 230.51-19.1 231.98-18.6 233.18-17.4L233.18-17.4 232.38-16.2Q231.53-17.3 230.21-17.73 228.88-18.15 227.88-18.15L227.88-18.15Q226.98-18.15 226.03-17.8 225.08-17.45 224.43-16.7 223.78-15.95 223.78-14.7L223.78-14.7Q223.78-13.55 224.41-12.8 225.03-12.05 226.03-11.58 227.03-11.1 228.13-10.7L228.13-10.7Q229.53-10.25 230.83-9.65 232.13-9.05 232.98-8.05 233.83-7.05 233.83-5.35L233.83-5.35Q233.83-3.7 233.13-2.4 232.43-1.1 231.03-0.35 229.63 0.4 227.53 0.4ZM241.08 0L241.08-19.25 242.78-19.25 242.78 0 241.08 0ZM240.53-25.85L240.53-25.85Q240.53-26.4 240.98-26.8 241.43-27.2 242.03-27.2L242.03-27.2Q242.58-27.2 243-26.8 243.43-26.4 243.43-25.85L243.43-25.85Q243.43-25.25 243-24.85 242.58-24.45 242.03-24.45L242.03-24.45Q241.43-24.45 240.98-24.85 240.53-25.25 240.53-25.85ZM265.58-2.95L266.53-1.9Q265.23-0.8 263.58-0.23 261.93 0.35 260.13 0.35L260.13 0.35Q257.28 0.35 254.98-0.95 252.68-2.25 251.33-4.53 249.98-6.8 249.98-9.65L249.98-9.65Q249.98-12.5 251.35-14.75 252.73-17 255-18.32 257.28-19.65 260.03-19.65L260.03-19.65Q261.93-19.65 263.6-19.07 265.28-18.5 266.58-17.4L266.58-17.4 265.68-16.25Q264.58-17.1 263.15-17.68 261.73-18.25 260.13-18.25L260.13-18.25Q257.78-18.25 255.85-17.07 253.93-15.9 252.8-13.98 251.68-12.05 251.68-9.65L251.68-9.65Q251.68-7.3 252.8-5.35 253.93-3.4 255.88-2.25 257.83-1.1 260.23-1.1L260.23-1.1Q261.78-1.1 263.13-1.6 264.48-2.1 265.58-2.95L265.58-2.95Z" opacity="1" transform="matrix(1,0,0,1,0,0)" fill="#ffffff" class="undefined-text-0" data-fill-palette-color="primary" id="text-0"></path></svg></g></svg></g><g transform="matrix(1,0,0,1,0,88.19940673472394)"><svg viewBox="0 0 395.52 30.9513144289519" height="30.9513144289519" width="395.52"><g transform="matrix(1,0,0,1,0,0)"><svg width="395.52" viewBox="2.5 -37.5 638.22998046875 49.95000076293945" height="30.9513144289519" data-palette-color="#dcdcdc"><path d="M5.6-32.25L2.5-32.25 2.5-35 12.6-35 12.6-32.25 9-32.25 9-2.75 21.7-2.75 22.45-9 24.9-8.75 24.35-2.75 24.4-2.75 24.35-2.65 24.15 0 23.65-0.05 23.65 0 2.5 0 2.5-2.75 5.6-2.75 5.6-32.25ZM31.25-11.2L31.25-11.2Q31.25-6.75 33.8-4.73 36.35-2.7 39.75-2.7L39.75-2.7Q41.95-2.7 44.27-3.13 46.6-3.55 47.35-3.9L47.35-3.9 48-1.55Q46.85-0.8 44.22-0.3 41.6 0.2 39.42 0.2 37.25 0.2 35.52-0.25 33.8-0.7 32-1.85 30.2-3 29.15-5.45 28.1-7.9 28.1-11.45L28.1-11.45Q28.1-18.05 31.5-21.55L31.5-21.55Q35.05-25.2 39.75-25.2 44.45-25.2 46.92-22.6 49.4-20 49.4-15.3L49.4-15.3Q49.4-14.3 49.25-13.15L49.25-13.15 31.4-13.15Q31.25-12.1 31.25-11.2ZM46.4-15.65L46.4-15.65Q46.4-18.75 44.55-20.43 42.7-22.1 40.25-22.1L40.25-22.1Q36.9-22.1 34.7-20.08 32.5-18.05 31.75-15.1L31.75-15.1 46.4-15.1Q46.4-15.4 46.4-15.65ZM63.8-2.45L63.8-2.45 65.75-2.55 65.9-0.55Q65.84-0.55 65.2-0.4L65.2-0.4Q63.7-0.05 61.85-0.05L61.85-0.05Q60.15-0.15 58.75-0.63 57.35-1.1 56.15-2.63 54.95-4.15 54.95-6.55L54.95-6.55 54.95-22.1 52.4-22.1 52.8-24.5 55-24.95 55.4-29.75 58.2-30 58.2-25 64.25-25 64.25-22.1 58.2-22.1 58.2-7.4Q58.2-2.45 63.8-2.45ZM96.24-2.45L96.24-2.45 98.19-2.55 98.34-0.55Q98.29-0.55 97.64-0.4L97.64-0.4Q96.14-0.05 94.29-0.05L94.29-0.05Q92.59-0.15 91.19-0.63 89.79-1.1 88.59-2.63 87.39-4.15 87.39-6.55L87.39-6.55 87.39-22.1 84.84-22.1 85.24-24.5 87.44-24.95 87.84-29.75 90.64-30 90.64-25 96.69-25 96.69-22.1 90.64-22.1 90.64-7.4Q90.64-2.45 96.24-2.45ZM127.29 0L117.19 0 117.19-2.5 120.24-2.5 120.24-17.1Q120.24-18.85 119.51-19.95 118.79-21.05 117.64-21.4L117.64-21.4Q115.74-22.05 114.54-21.95L114.54-21.95Q111.29-21.85 107.39-19.65L107.39-19.65 107.39-2.5 111.19-2.5 111.19 0 101.09 0 101.09-2.5 104.14-2.5 104.14-35 100.79-35 100.79-37.5 107.39-37.5 107.39-21.9Q113.94-26.4 119.24-24.7L119.24-24.7Q120.44-24.35 121.31-23.68 122.19-23 122.84-21.65 123.49-20.3 123.49-18.4L123.49-18.4 123.49-2.5 127.29-2.5 127.29 0ZM131.64-11.2L131.64-11.2Q131.64-6.75 134.19-4.73 136.74-2.7 140.14-2.7L140.14-2.7Q142.34-2.7 144.66-3.13 146.99-3.55 147.74-3.9L147.74-3.9 148.39-1.55Q147.24-0.8 144.61-0.3 141.99 0.2 139.81 0.2 137.64 0.2 135.91-0.25 134.19-0.7 132.39-1.85 130.59-3 129.54-5.45 128.49-7.9 128.49-11.45L128.49-11.45Q128.49-18.05 131.89-21.55L131.89-21.55Q135.44-25.2 140.14-25.2 144.84-25.2 147.31-22.6 149.79-20 149.79-15.3L149.79-15.3Q149.79-14.3 149.64-13.15L149.64-13.15 131.79-13.15Q131.64-12.1 131.64-11.2ZM146.79-15.65L146.79-15.65Q146.79-18.75 144.94-20.43 143.09-22.1 140.64-22.1L140.64-22.1Q137.29-22.1 135.09-20.08 132.89-18.05 132.14-15.1L132.14-15.1 146.79-15.1Q146.79-15.4 146.79-15.65ZM194.33 0L184.23 0 184.23-2.5 187.33-2.5 187.33-17.2Q187.33-22.05 181.93-22.05L181.93-22.05Q179.08-22 175.53-20.15L175.53-20.15 175.53-2.5 179.33-2.5 179.33 0 169.23 0 169.23-2.5 172.28-2.5 172.28-22.5 168.98-22.5 168.98-25 175.58-25 175.58-22.5 175.53-22.5 175.53-22.35Q179.68-24.95 183.13-25.15L183.13-25.15Q187.88-25.15 189.58-22.45L189.58-22.45Q193.93-24.95 197.78-25.15L197.78-25.15Q201.28-25.15 203.08-23.7L203.08-23.7Q203.93-23.05 204.56-21.68 205.18-20.3 205.18-18.4L205.18-18.4 205.18-2.5 208.88-2.5 208.88 0 198.78 0 198.78-2.5 201.93-2.5 201.93-17.15Q201.93-22.05 196.58-22.05L196.58-22.05Q193.68-22 190.43-20.25L190.43-20.25Q190.58-19.4 190.58-18.4L190.58-18.4 190.58-2.5 194.33-2.5 194.33 0ZM230.83 0L230.33-2.9Q225.78 0.15 221.73 0.15L221.73 0.15Q220.03 0.15 217.73-0.7L217.73-0.7Q216.23-1.25 215.33-2.78 214.43-4.3 214.43-6.6L214.43-6.6 214.43-22.5 210.93-22.5 210.93-25 217.68-25 217.68-7.6Q217.68-5.85 218.43-4.73 219.18-3.6 220.33-3.25L220.33-3.25Q222.23-2.65 223.38-2.75L223.38-2.75Q226.38-2.8 230.33-4.9L230.33-4.9 230.33-22.5 226.83-22.5 226.83-25 233.58-25 233.58-2.5 237.43-2.5 237.43 0 230.83 0ZM243.53-8.05L243.78-3.25Q245.88-2.6 247.15-2.6 248.43-2.6 248.82-2.65L248.82-2.65Q251.43-2.7 253.18-3.75 254.93-4.8 254.93-6.7 254.93-8.6 253.55-9.65 252.18-10.7 250.22-11.25 248.28-11.8 246.32-12.45 244.38-13.1 243-14.5 241.63-15.9 241.63-18.15L241.63-18.15Q241.63-21.35 244.07-23.28 246.53-25.2 250.28-25.2L250.28-25.2Q253.07-25.2 255.93-24.2L255.93-24.2 256.82-23.85 256.82-18.1 254.38-17.75 254.18-22Q252.18-22.3 250.82-22.3L250.82-22.3Q248.07-22.3 246.47-21.23 244.88-20.15 244.88-18.48 244.88-16.8 246.25-15.85 247.63-14.9 249.57-14.35 251.53-13.8 253.47-13.13 255.43-12.45 256.8-10.93 258.18-9.4 258.18-6.95L258.18-6.95Q258.18-3.65 255.7-1.73 253.22 0.2 248.68 0.2 244.13 0.2 241.13-1.95L241.13-1.95 241.13-7.7 243.53-8.05ZM265.22-22.5L261.87-22.5 261.87-25 268.47-25 268.47-2.5 272.22-2.5 272.22 0 262.12 0 262.12-2.5 265.22-2.5 265.22-22.5ZM266.77-31.7Q265.77-31.7 265.22-32.33 264.67-32.95 264.67-33.98 264.67-35 265.25-35.63 265.82-36.25 266.82-36.25 267.82-36.25 268.45-35.63 269.07-35 269.07-33.93 269.07-32.85 268.42-32.27 267.77-31.7 266.77-31.7ZM287.22-22.3L287.22-22.3Q282.97-22.3 280.35-19.48 277.72-16.65 277.72-11.55L277.72-11.55Q277.72-2.7 285.97-2.7L285.97-2.7Q289.17-2.7 291.32-3.23 293.47-3.75 293.67-3.9L293.67-3.9 294.37-1.55Q293.22-0.8 290.57-0.3 287.92 0.2 285.77 0.2 283.62 0.2 281.87-0.25 280.12-0.7 278.35-1.85 276.57-3 275.52-5.48 274.47-7.95 274.47-11.5L274.47-11.5Q274.47-18.05 277.82-21.4L277.82-21.4Q281.57-25.25 287.27-25.25L287.27-25.25Q289.07-25.25 291.1-24.78 293.12-24.3 294.22-23.3L294.22-23.3 294.22-16.75 291.77-16.4 291.52-21.65Q289.47-22.3 287.22-22.3ZM324.46-2.45L324.46-2.45 326.42-2.55 326.56-0.55Q326.51-0.55 325.87-0.4L325.87-0.4Q324.37-0.05 322.51-0.05L322.51-0.05Q320.81-0.15 319.42-0.63 318.01-1.1 316.81-2.63 315.62-4.15 315.62-6.55L315.62-6.55 315.62-22.1 313.06-22.1 313.46-24.5 315.67-24.95 316.06-29.75 318.87-30 318.87-25 324.92-25 324.92-22.1 318.87-22.1 318.87-7.4Q318.87-2.45 324.46-2.45ZM336.46 0.2L336.46 0.2Q329.81 0.2 329.41-5.05L329.41-5.05Q329.36-5.4 329.36-5.75L329.36-5.75Q329.36-9.95 334.41-11.35L334.41-11.35Q337.21-12.05 345.21-12.95L345.21-12.95 345.21-16.8Q345.21-22.25 339.51-22.25L339.51-22.25Q335.41-22.2 330.81-20.35L330.81-20.35 329.96-22.5 330.46-22.7Q334.36-24.4 336.41-24.75 338.46-25.1 339.41-25.13 340.36-25.15 341.24-25.1 342.11-25.05 343.51-24.65 344.91-24.25 345.94-23.53 346.96-22.8 347.71-21.35 348.46-19.9 348.46-17.9L348.46-17.9 348.46-2.5 352.31-2.5 352.31 0 345.71 0 345.21-1.9Q340.71 0.2 336.46 0.2ZM337.36-2.1L337.36-2.1Q341.16-2.1 345.21-3.8L345.21-3.8 345.21-10.95Q337.71-10.7 335.51-9.95L335.51-9.95Q333.81-9.5 333.11-8.33 332.41-7.15 332.41-6.45 332.41-5.75 332.41-5.5L332.41-5.5Q332.56-3.7 333.96-2.9 335.36-2.1 337.36-2.1ZM369.31-22.5L367.26-22.5 367.26-25 377.76-25 377.76-22.5 373.06-22.5 364.66-13.3 374.16-2.5 378.91-2.5 378.91 0 372.56 0 361.41-13.3 361.41-2.5 365.16-2.5 365.16 0 355.06 0 355.06-2.5 358.16-2.5 358.16-35 354.81-35 354.81-37.5 361.41-37.5 361.41-13.3 369.31-22.5ZM382.46-11.2L382.46-11.2Q382.46-6.75 385.01-4.73 387.56-2.7 390.96-2.7L390.96-2.7Q393.16-2.7 395.48-3.13 397.81-3.55 398.56-3.9L398.56-3.9 399.21-1.55Q398.06-0.8 395.43-0.3 392.81 0.2 390.63 0.2 388.46 0.2 386.73-0.25 385.01-0.7 383.21-1.85 381.41-3 380.36-5.45 379.31-7.9 379.31-11.45L379.31-11.45Q379.31-18.05 382.71-21.55L382.71-21.55Q386.26-25.2 390.96-25.2 395.66-25.2 398.13-22.6 400.61-20 400.61-15.3L400.61-15.3Q400.61-14.3 400.46-13.15L400.46-13.15 382.61-13.15Q382.46-12.1 382.46-11.2ZM397.61-15.65L397.61-15.65Q397.61-18.75 395.76-20.43 393.91-22.1 391.46-22.1L391.46-22.1Q388.11-22.1 385.91-20.08 383.71-18.05 382.96-15.1L382.96-15.1 397.61-15.1Q397.61-15.4 397.61-15.65ZM441.5-22.5L438.75-22.5 438.75-25 447.95-25 447.95-22.5 444.95-22.5 435 0 433.35 9.95 437.55 9.95 437.55 12.45 427 12.45 427 9.95 430.1 9.95 431.65 0 430.8 0 422.7-22.5 419.3-22.5 419.3-25 429.85-25 429.85-22.5 426.4-22.5 433-2.35 441.5-22.5ZM460.18 0.2Q454.95 0.2 451.73-2.8 448.5-5.8 448.5-11.98 448.5-18.15 451.93-21.68 455.35-25.2 460.55-25.2 465.75-25.2 469-22.2 472.25-19.2 472.25-13.03 472.25-6.85 468.82-3.33 465.4 0.2 460.18 0.2ZM460.48-22.3Q456.75-22.3 454.25-19.6 451.75-16.9 451.75-12.28 451.75-7.65 454.13-5.18 456.5-2.7 460.25-2.7 464-2.7 466.5-5.38 469-8.05 469-12.68 469-17.3 466.6-19.8 464.2-22.3 460.48-22.3ZM495.7 0L495.2-2.9Q490.65 0.15 486.6 0.15L486.6 0.15Q484.9 0.15 482.6-0.7L482.6-0.7Q481.1-1.25 480.2-2.78 479.3-4.3 479.3-6.6L479.3-6.6 479.3-22.5 475.8-22.5 475.8-25 482.55-25 482.55-7.6Q482.55-5.85 483.3-4.73 484.05-3.6 485.2-3.25L485.2-3.25Q487.1-2.65 488.25-2.75L488.25-2.75Q491.25-2.8 495.2-4.9L495.2-4.9 495.2-22.5 491.7-22.5 491.7-25 498.45-25 498.45-2.5 502.3-2.5 502.3 0 495.7 0ZM529.29 0.2L529.29 0.2Q522.64 0.2 522.24-5.05L522.24-5.05Q522.19-5.4 522.19-5.75L522.19-5.75Q522.19-9.95 527.24-11.35L527.24-11.35Q530.04-12.05 538.04-12.95L538.04-12.95 538.04-16.8Q538.04-22.25 532.34-22.25L532.34-22.25Q528.24-22.2 523.64-20.35L523.64-20.35 522.79-22.5 523.29-22.7Q527.19-24.4 529.24-24.75 531.29-25.1 532.24-25.13 533.19-25.15 534.07-25.1 534.94-25.05 536.34-24.65 537.74-24.25 538.77-23.53 539.79-22.8 540.54-21.35 541.29-19.9 541.29-17.9L541.29-17.9 541.29-2.5 545.14-2.5 545.14 0 538.54 0 538.04-1.9Q533.54 0.2 529.29 0.2ZM530.19-2.1L530.19-2.1Q533.99-2.1 538.04-3.8L538.04-3.8 538.04-10.95Q530.54-10.7 528.34-9.95L528.34-9.95Q526.64-9.5 525.94-8.33 525.24-7.15 525.24-6.45 525.24-5.75 525.24-5.5L525.24-5.5Q525.39-3.7 526.79-2.9 528.19-2.1 530.19-2.1ZM549.14-22.5L545.69-22.5 545.69-25 556.19-25 556.19-22.5 552.84-22.5 558.39-4.05 564.94-24.75 568.14-25 573.64-4.05 580.09-22.5 576.69-22.5 576.69-25 586.69-25 586.69-22.5 583.79-22.5 575.24 0 572.24 0 566.39-19.85 559.64 0 556.64 0 549.14-22.5ZM596.39 0.2L596.39 0.2Q589.74 0.2 589.34-5.05L589.34-5.05Q589.29-5.4 589.29-5.75L589.29-5.75Q589.29-9.95 594.34-11.35L594.34-11.35Q597.14-12.05 605.14-12.95L605.14-12.95 605.14-16.8Q605.14-22.25 599.44-22.25L599.44-22.25Q595.34-22.2 590.74-20.35L590.74-20.35 589.89-22.5 590.39-22.7Q594.29-24.4 596.34-24.75 598.39-25.1 599.34-25.13 600.29-25.15 601.16-25.1 602.04-25.05 603.44-24.65 604.84-24.25 605.86-23.53 606.89-22.8 607.64-21.35 608.39-19.9 608.39-17.9L608.39-17.9 608.39-2.5 612.24-2.5 612.24 0 605.64 0 605.14-1.9Q600.64 0.2 596.39 0.2ZM597.29-2.1L597.29-2.1Q601.09-2.1 605.14-3.8L605.14-3.8 605.14-10.95Q597.64-10.7 595.44-9.95L595.44-9.95Q593.74-9.5 593.04-8.33 592.34-7.15 592.34-6.45 592.34-5.75 592.34-5.5L592.34-5.5Q592.49-3.7 593.89-2.9 595.29-2.1 597.29-2.1ZM634.28-22.5L631.53-22.5 631.53-25 640.73-25 640.73-22.5 637.73-22.5 627.78 0 626.13 9.95 630.33 9.95 630.33 12.45 619.78 12.45 619.78 9.95 622.88 9.95 624.43 0 623.58 0 615.48-22.5 612.08-22.5 612.08-25 622.63-25 622.63-22.5 619.18-22.5 625.78-2.35 634.28-22.5Z" opacity="1" transform="matrix(1,0,0,1,0,0)" fill="#ffffff" class="undefined-text-1" data-fill-palette-color="secondary" id="text-1"></path></svg></g></svg></g></svg></g></svg></g><g transform="matrix(1,0,0,1,115.4268516759,0)"><svg viewBox="0 0 164.6662966482 164.66629664820002" height="164.66629664820002" width="164.6662966482"><g><svg></svg></g><g id="icon-0"><svg viewBox="0 0 164.6662966482 164.66629664820002" height="164.66629664820002" width="164.6662966482"><g><path xmlns="http://www.w3.org/2000/svg" d="M49.4 164.666c-27.283 0-49.4-22.117-49.4-49.4v-65.866c0-27.283 22.117-49.4 49.4-49.4h65.866c27.283 0 49.4 22.117 49.4 49.4v65.866c0 27.283-22.117 49.4-49.4 49.4z" fill="#ffffff" fill-rule="nonzero" stroke="none" stroke-width="1" stroke-linecap="butt" stroke-linejoin="miter" stroke-miterlimit="10" stroke-dasharray="" stroke-dashoffset="0" font-family="none" font-weight="none" font-size="none" text-anchor="none" style="mix-blend-mode: normal" data-fill-palette-color="accent"></path></g><g transform="matrix(1,0,0,1,44.4462875241,51.86198955346579)"><svg viewBox="0 0 75.77372159999999 60.94231754126844" height="60.94231754126844" width="75.77372159999999"><g><svg xmlns="http://www.w3.org/2000/svg" xmlns:xlink="http://www.w3.org/1999/xlink" version="1.1" x="0" y="0" viewBox="0 9.78600025177002 100.0003433227539 80.42699432373047" enable-background="new 0 0 100 100" xml:space="preserve" width="75.77372159999999" height="60.94231754126844" class="icon-a-0" data-fill-palette-color="quaternary" id="a-0"><path d="M49.942 52.994c13.552-0.488 27.103-0.977 40.653-1.465-2.527-4.177-3.159-7.831-7.989-8.461-7.229-0.94-14.458-1.883-21.688-2.826-14.023-1.827-28.05-3.654-42.075-5.48C20.101 36.792 39.724 53.361 49.942 52.994z" fill="#282634" data-fill-palette-color="quaternary"></path><path d="M0 9.786c4.391 7.257 26.615 23.072 32.953 23.886 17.33 2.231 34.657 4.46 51.986 6.688-3.393-5.607-4.18-9.35-10.312-10.959-8.904-2.341-17.812-4.683-26.717-7.023C31.94 18.182 15.97 13.984 0 9.786z" fill="#282634" data-fill-palette-color="quaternary"></path><path d="M63.108 66.207c10.413-2.219 20.826-4.439 31.241-6.66-2.028-3.346-2.034-5.359-5.827-5.189-6.158 0.273-12.314 0.549-18.471 0.822-11.343 0.506-22.686 1.014-34.028 1.518C37.298 58.064 54.94 67.947 63.108 66.207z" fill="#282634" data-fill-palette-color="quaternary"></path><path d="M87.682 90.213c5.725-3.719 7.262-7.721 10.519-13.807 3.651-6.824 1.257-7.844-2.821-14.596-0.417-0.688-5.842 0.232-6.453 0.904-0.745 0.818-0.248 5.455-0.294 6.496C88.315 76.211 87.998 83.213 87.682 90.213z" fill="#282634" data-fill-palette-color="quaternary"></path><path d="M86.35 63.447c-3.795 0.809-8.604 0.191-9.572 4.229-1.373 5.736-2.746 11.475-4.12 17.211C81.904 82.678 86.028 71.582 86.35 63.447z" fill="#282634" data-fill-palette-color="quaternary"></path><path d="M74.666 66.121c-9.148 1.953-8.956 4.611-12.879 13.18C68.007 78.711 73.811 71.941 74.666 66.121z" fill="#282634" data-fill-palette-color="quaternary"></path></svg></g></svg></g></svg></g></svg></g><g></g></svg></g><defs></defs></svg><rect width="325.1908177734937" height="247.2" fill="none" stroke="none" visibility="hidden"></rect></g></svg></g></svg>